:FULLY-SPECIFIED
:FORCE-ALL-JOINTS-BE-3DOF
:DEGREES
374
root 6.18429 16.5206 -15.7948 9.3249 -17.3034 -6.44355
lfemur -41.7431 20.7275 -11.784
ltibia 57.6227 0 0
lfoot -5.98851 -0.597646 0
ltoes 15.4986 0 0
rfemur -22.0969 -2.38258 31.6926
rtibia 38.3406 0 0
rfoot -23.3322 1.38377 0
rtoes 15.6632 0 0
lowerback 4.59245 1.93461 3.50037
upperback 2.44895 2.71217 1.06325
thorax 0.0914028 1.37537 -0.993638
lowerneck -7.53142 -1.54161 2.82626
upperneck -0.0954924 -2.36181 2.21333
head 1.23561 -1.13708 0.131991
lclavicle 8.455e-15 -7.06342e-16 0
lhumerus -40.2933 -22.6985 94.9922
lradius 55.4771 0 0
lwrist 16.9001 0 0
lhand -19.8155 2.9924 0
lfingers 7.12502 0 0
lthumb 6.51559 32.8048 0
rclavicle 8.455e-15 -7.06342e-16 0
rhumerus -38.4664 12.5295 -94.2263
rradius 61.0097 0 0
rwrist 8.95124 0 0
rhand -16.3474 -22.7677 0
rfingers 7.12502 0 0
rthumb 9.86979 -772.423 0
375
root 6.13867 16.5251 -15.676 9.43233 -18.0216 -6.54385
lfemur -43.0137 20.7712 -12.4184
ltibia 56.4287 0 0
lfoot -6.53587 0.190094 0
ltoes 15.029 0 0
rfemur -21.5224 -1.71965 31.6231
rtibia 38.3012 0 0
rfoot -23.3642 1.18241 0
rtoes 16.1643 0 0
lowerback 4.69931 2.03847 3.62876
upperback 2.46453 2.85763 0.988652
thorax 0.0584109 1.44922 -1.15026
lowerneck -7.49878 -1.4028 3.01264
upperneck -0.151372 -2.18751 2.12394
head 1.20757 -1.05288 0.0804483
lclavicle 8.43477e-15 -1.51996e-15 0
lhumerus -40.1159 -22.746 94.5766
lradius 55.341 0 0
lwrist 17.0019 0 0
lhand -20.4719 2.72636 0
lfingers 7.12502 0 0
lthumb 5.88233 32.5702 0
rclavicle 8.43477e-15 -1.51996e-15 0
rhumerus -38.2948 13.0222 -94.1659
rradius 60.2307 0 0
rwrist 9.30277 0 0
rhand -14.896 -21.656 0
rfingers 7.12502 0 0
rthumb 11.2673 -771.244 0
376
root 6.09306 16.5295 -15.5572 9.51215 -18.7353 -6.63229
lfemur -44.1205 20.7404 -12.9653
ltibia 55.3003 0 0
lfoot -7.02815 0.94286 0
ltoes 14.5696 0 0
rfemur -21.0121 -1.17968 31.5538
rtibia 38.3812 0 0
rfoot -23.3138 0.998262 0
rtoes 16.6612 0 0
lowerback 4.79407 2.14128 3.7368
upperback 2.47542 3.00056 0.914696
thorax 0.0265876 1.52164 -1.29437
lowerneck -7.46557 -1.26795 3.19317
upperneck -0.187072 -2.01869 2.04206
head 1.18633 -0.970734 0.0317946
lclavicle 8.33671e-15 -2.30022e-15 0
lhumerus -39.9703 -22.7714 94.1973
lradius 55.2049 0 0
lwrist 17.0985 0 0
lhand -21.047 2.4918 0
lfingers 7.12502 0 0
lthumb 5.32748 32.3639 0
rclavicle 8.33671e-15 -2.30022e-15 0
rhumerus -38.1714 13.4549 -94.1154
rradius 59.5242 0 0
rwrist 9.61558 0 0
rhand -13.6166 -20.6511 0
rfingers 7.12502 0 0
rthumb 12.4992 -770.183 0
377
root 6.04744 16.534 -15.4383 9.56008 -19.4472 -6.70892
lfemur -45.0419 20.6264 -13.4105
ltibia 54.2556 0 0
lfoot -7.45688 1.64725 0
ltoes 14.1326 0 0
rfemur -20.5725 -0.77929 31.4896
rtibia 38.5917 0 0
rfoot -23.176 0.838284 0
rtoes 17.1514 0 0
lowerback 4.87546 2.24295 3.82232
upperback 2.48105 3.14067 0.842157
thorax -0.00408898 1.59247 -1.42385
lowerneck -7.43232 -1.13704 3.36661
upperneck -0.199401 -1.85536 1.96836
head 1.17299 -0.890537 -0.013621
lclavicle 8.15866e-15 -3.04037e-15 0
lhumerus -39.8599 -22.7694 93.8585
lradius 55.0693 0 0
lwrist 17.1881 0 0
lhand -21.532 2.29237 0
lfingers 7.12502 0 0
lthumb 4.85965 32.1897 0
rclavicle 8.15866e-15 -3.04037e-15 0
rhumerus -38.1063 13.8163 -94.0808
rradius 58.8995 0 0
rwrist 9.88404 0 0
rhand -12.5446 -19.7753 0
rfingers 7.12502 0 0
rthumb 13.5317 -769.263 0
378
root 6.00183 16.5384 -15.3195 9.57185 -20.16 -6.77383
lfemur -45.7561 20.4204 -13.7399
ltibia 53.3126 0 0
lfoot -7.81362 2.28986 0
ltoes 13.7303 0 0
rfemur -20.2101 -0.535096 31.4354
rtibia 38.9437 0 0
rfoot -22.9457 0.709451 0
rtoes 17.6322 0 0
lowerback 4.94224 2.34339 3.88312
upperback 2.48087 3.27768 0.771813
thorax -0.0336404 1.66156 -1.53659
lowerneck -7.39961 -1.01007 3.53167
upperneck -0.185169 -1.69754 1.90346
head 1.16866 -0.812199 -0.055449
lclavicle 7.89842e-15 -3.73363e-15 0
lhumerus -39.7882 -22.7347 93.5642
lradius 54.9346 0 0
lwrist 17.2693 0 0
lhand -21.918 2.13173 0
lfingers 7.12502 0 0
lthumb 4.48741 32.051 0
rclavicle 7.89842e-15 -3.73363e-15 0
rhumerus -38.1095 14.0949 -94.0681
rradius 58.3656 0 0
rwrist 10.1025 0 0
rhand -11.7152 -19.0505 0
rfingers 7.12502 0 0
rthumb 14.3309 -768.509 0
379
root 5.95621 16.5429 -15.2007 9.54319 -20.8765 -6.8271
lfemur -46.2414 20.1137 -13.9394
ltibia 52.4892 0 0
lfoot -8.08989 2.85728 0
ltoes 13.3749 0 0
rfemur -19.9317 -0.463717 31.3962
rtibia 39.4485 0 0
rfoot -22.618 0.618733 0
rtoes 18.1011 0 0
lowerback 4.99316 2.4425 3.91702
upperback 2.47433 3.41131 0.704442
thorax -0.0620885 1.72875 -1.63046
lowerneck -7.36796 -0.887037 3.6871
upperneck -0.141185 -1.54524 1.84803
head 1.17445 -0.735625 -0.0933401
lclavicle 7.55382e-15 -4.37326e-15 0
lhumerus -39.7586 -22.6619 93.3187
lradius 54.8011 0 0
lwrist 17.3402 0 0
lhand -22.1962 2.01352 0
lfingers 7.12502 0 0
lthumb 4.21936 31.9515 0
rclavicle 7.55382e-15 -4.37326e-15 0
rhumerus -38.1913 14.2795 -94.0831
rradius 57.9319 0 0
rwrist 10.2654 0 0
rhand -11.1636 -18.4989 0
rfingers 7.12502 0 0
rthumb 14.8629 -767.946 0
380
root 5.90715 16.5364 -15.0547 9.4766 -21.5965 -6.86136
lfemur -46.4985 19.6791 -14.0185
ltibia 51.7135 0 0
lfoot -8.27781 3.40857 0
ltoes 13.0115 0 0
rfemur -19.7266 -0.58311 31.3648
rtibia 40.1648 0 0
rfoot -22.155 0.541983 0
rtoes 18.5949 0 0
lowerback 5.02361 2.54367 3.91929
upperback 2.46007 3.54596 0.635546
thorax -0.0879859 1.79622 -1.70759
lowerneck -7.33335 -0.771728 3.8352
upperneck -0.0677726 -1.40382 1.80826
head 1.18943 -0.663371 -0.125733
lclavicle 7.11154e-15 -5.03502e-15 0
lhumerus -39.7776 -22.5578 93.1213
lradius 54.6676 0 0
lwrist 17.4118 0 0
lhand -22.3493 1.9454 0
lfingers 7.12502 0 0
lthumb 4.072 31.8971 0
rclavicle 7.11154e-15 -5.03502e-15 0
rhumerus -38.3388 14.3913 -94.1098
rradius 57.5876 0 0
rwrist 10.3712 0 0
rhand -10.8213 -18.0777 0
rfingers 7.12502 0 0
rthumb 15.1935 -767.525 0
381
root 5.85809 16.53 -14.9087 9.37921 -22.3167 -6.87062
lfemur -46.5537 19.1055 -14.0018
ltibia 50.9064 0 0
lfoot -8.38121 4.00706 0
ltoes 12.5816 0 0
rfemur -19.5784 -0.887699 31.3297
rtibia 41.1265 0 0
rfoot -21.5326 0.451516 0
rtoes 19.1463 0 0
lowerback 5.03141 2.64973 3.88876
upperback 2.43769 3.68549 0.560595
thorax -0.110149 1.86591 -1.7722
lowerneck -7.29189 -0.667186 3.97934
upperneck 0.0309789 -1.27754 1.78833
head 1.21154 -0.597595 -0.151798
lclavicle 6.56355e-15 -5.78763e-15 0
lhumerus -39.8462 -22.4343 92.9664
lradius 54.5326 0 0
lwrist 17.4946 0 0
lhand -22.3743 1.92909 0
lfingers 7.12502 0 0
lthumb 4.04822 31.8882 0
rclavicle 6.56355e-15 -5.78763e-15 0
rhumerus -38.5296 14.4612 -94.1282
rradius 57.3132 0 0
rwrist 10.4254 0 0
rhand -10.5909 -17.7263 0
rfingers 7.12502 0 0
rthumb 15.416 -767.178 0
